<?xml version="1.0" encoding="UTF-8"?>
<svg id="Capa_2" data-name="Capa 2" xmlns="http://www.w3.org/2000/svg" viewBox="0 0 99.26 57.95">
  <defs>
    <style>
      .cls-1 {
        fill: #fff;
      }
    </style>
  </defs>
  <g id="Text">
    <path class="cls-1" d="M94.42,21.23c.02-.06.04-.12.05-.18l2.65-19.83c.12-.93-.93-1.56-1.69-1l-15.8,11.64c-8.33-3.27-18.72-5.22-30-5.22s-21.11,1.84-29.33,4.96L4.85.21c-.76-.56-1.82.07-1.69,1l2.56,19.12c-3.65,3.57-5.72,7.64-5.72,11.96,0,14.17,22.22,25.66,49.63,25.66s49.63-11.49,49.63-25.66c0-3.96-1.74-7.71-4.84-11.06ZM34.74,48.38h-9.51c-6.39,0-11.57-5.18-11.57-11.57h0s9.51,0,9.51,0c6.39,0,11.57,5.18,11.57,11.57h0ZM85.61,36.81c0,6.39-5.18,11.57-11.57,11.57h-9.51c0-6.39,5.18-11.57,11.57-11.57h9.51Z"/>
  </g>
</svg>