<svg xmlns="http://www.w3.org/2000/svg" viewBox="0 0 214.6 125.16"><defs><style>.cls-1{fill:#231f20;}.cls-2{fill:#d5af34;}.cls-3{fill:#bd932e;}</style></defs><title>medievalCatsSVG</title><g id="Capa_2" data-name="Capa 2"><g id="Text"><path class="cls-1" d="M10.71.46A2.3,2.3,0,0,0,7.06,2.62l5.49,41.12C20.17,36.33,31,29.92,44,25ZM122.53,71.34v33.15L107.3,115.06,92.07,104.49V71.34H.26c1.64,29.87,49,53.82,107.15,53.82s105.5-24,107.15-53.82ZM54.69,104.49a25,25,0,0,1-25-25H50.26a25,25,0,0,1,25,25Zm105.44,0H139.57a25,25,0,0,1,25-25h20.54A25,25,0,0,1,160.13,104.49Zm46.2-104L172.2,25.6c13.54,5.33,24.54,12.26,31.94,20.26a1.9,1.9,0,0,0,.11-.39L210,2.62A2.3,2.3,0,0,0,206.33.46Z"/><path class="cls-2" d="M214.6,69.74c0-30.58-48-55.4-107.19-55.4h-.11V115.05l15.23-10.55V71.34h92C214.58,70.82,214.6,70.28,214.6,69.74Z"/><path class="cls-3" d="M0,69.74c0-30.58,48-55.4,107.19-55.4h.11V115.05L92.07,104.5V71.34H0C0,70.82,0,70.28,0,69.74Z"/></g></g></svg>